<?xml version="1.0" standalone="no"?>
<svg xmlns="http://www.w3.org/2000/svg" viewBox="0 0 133.656 36" width="133.656" height="36"><g fill="#000000" color="#000000" transform="translate(105.657, 3.9999999999999982) scale(0.5600001)"><svg width="50.0" height="50.0" x="0.0" y="0.0" viewBox="0 0 50 50"><path fill="currentColor" fill-rule="evenodd" d="M24.968 0C11.178 0 0 11.178 0 24.968c0 7.13 2.993 13.555 7.784 18.104V28.647h4.083v17.576a24.911 24.911 0 0 0 5.424 2.506V15.22h4.083v34.456c1.174.17 2.373.262 3.594.262.616 0 1.225-.03 1.83-.075V34.606h4.083v14.62a24.785 24.785 0 0 0 5.424-2.014V23.783h4.083V44.6c5.81-4.572 9.549-11.663 9.549-19.63C49.937 11.178 38.757 0 24.967 0"></path></svg></g><path fill="#603209" fill-rule="nonzero" d="M0 0.36L7.92 0.36L7.92 1.80L4.80 1.80L4.80 15.96L3.12 15.96L3.12 1.80L0 1.80L0 0.36ZM18.48 3.36L18.48 15.96L17.76 15.96L17.14 14.42Q16.63 15.29 15.82 15.80Q15 16.32 14.02 16.32L14.02 16.32Q10.56 16.32 10.56 12.96L10.56 12.96L10.56 10.56Q10.56 7.20 14.02 7.20L14.02 7.20L16.80 7.20L16.80 3.26Q16.80 2.40 16.25 1.92Q15.70 1.44 14.62 1.44L14.62 1.44Q12.48 1.44 12.48 3.26L12.48 3.26L12.48 4.68L10.80 4.68L10.80 3.36Q10.80 1.75 11.75 0.88Q12.70 0 14.62 0Q16.54 0 17.51 0.88Q18.48 1.75 18.48 3.36L18.48 3.36ZM16.80 12.55L16.80 8.64L14.02 8.64Q13.01 8.64 12.62 9.14Q12.24 9.65 12.24 10.56L12.24 10.56L12.24 12.96Q12.24 13.87 12.62 14.38Q13.01 14.88 14.02 14.88Q15.02 14.88 15.89 14.10Q16.75 13.32 16.80 12.55L16.80 12.55ZM23.04 15.96L23.04 0.36L26.66 0.36Q28.54 0.36 29.51 1.25Q30.48 2.14 30.48 3.72L30.48 3.72L30.48 5.16Q30.48 7.20 28.78 7.78L28.78 7.78Q30.72 8.30 30.72 10.44L30.72 10.44L30.72 12.60Q30.72 14.21 29.76 15.08Q28.80 15.96 26.90 15.96L26.90 15.96L23.04 15.96ZM29.04 12.60L29.04 12.60L29.04 10.44Q29.04 9.53 28.49 8.96Q27.94 8.40 26.90 8.40L26.90 8.40L24.72 8.40L24.72 14.52L26.90 14.52Q29.04 14.52 29.04 12.60ZM28.80 5.16L28.80 5.16L28.80 3.72Q28.80 2.81 28.25 2.30Q27.70 1.80 26.66 1.80L26.66 1.80L24.72 1.80L24.72 7.20L26.66 7.20Q27.72 7.20 28.26 6.65Q28.80 6.10 28.80 5.16ZM42.36 3.05L42.36 15.96L40.68 15.96L40.68 0.36L43.20 0.36L45.94 10.66L48.70 0.36L51.22 0.36L51.22 15.96L49.54 15.96L49.54 3.05L46.73 13.56L45.17 13.56L42.36 3.05ZM63.46 3.36L63.46 15.96L62.74 15.96L62.11 14.42Q61.61 15.29 60.79 15.80Q59.98 16.32 58.99 16.32L58.99 16.32Q55.54 16.32 55.54 12.96L55.54 12.96L55.54 10.56Q55.54 7.20 58.99 7.20L58.99 7.20L61.78 7.20L61.78 3.26Q61.78 2.40 61.22 1.92Q60.67 1.44 59.59 1.44L59.59 1.44Q57.46 1.44 57.46 3.26L57.46 3.26L57.46 4.68L55.78 4.68L55.78 3.36Q55.78 1.75 56.72 0.88Q57.67 0 59.59 0Q61.51 0 62.48 0.88Q63.46 1.75 63.46 3.36L63.46 3.36ZM61.78 12.55L61.78 8.64L58.99 8.64Q57.98 8.64 57.60 9.14Q57.22 9.65 57.22 10.56L57.22 10.56L57.22 12.96Q57.22 13.87 57.60 14.38Q57.98 14.88 58.99 14.88Q60.00 14.88 60.86 14.10Q61.73 13.32 61.78 12.55L61.78 12.55ZM69.72 9.96L69.72 15.96L68.04 15.96L68.04 0.36L69.72 0.36L69.72 6.98L73.90 0.36L75.77 0.36L71.52 7.08L76.06 15.96L74.21 15.96L70.51 8.69L69.72 9.96ZM84.82 12.96L84.82 12.96L84.82 11.64L86.50 11.64L86.50 12.96Q86.50 14.57 85.51 15.44Q84.53 16.32 82.56 16.32Q80.59 16.32 79.58 15.44Q78.58 14.57 78.58 12.96L78.58 12.96L78.58 3.36Q78.58 1.75 79.56 0.88Q80.54 0 82.51 0Q84.48 0 85.49 0.88Q86.50 1.75 86.50 3.36L86.50 3.36L86.50 8.64L80.26 8.64L80.26 12.96Q80.26 14.88 82.54 14.88Q84.82 14.88 84.82 12.96ZM80.26 3.36L80.26 3.36L80.26 7.20L84.82 7.20L84.82 3.36Q84.82 1.44 82.54 1.44Q80.26 1.44 80.26 3.36ZM92.62 4.99L92.62 15.96L90.94 15.96L90.94 0.36L91.66 0.36L92.35 2.14Q93.12 0 94.80 0L94.80 0Q97.66 0 97.66 3.12L97.66 3.12L97.66 4.68L96.05 4.68L96.05 3.02Q96.05 1.44 94.73 1.44L94.73 1.44Q93.94 1.44 93.28 2.35Q92.62 3.26 92.62 4.99L92.62 4.99Z" transform="translate(0, 9.84)"></path></svg>